<svg xmlns="http://www.w3.org/2000/svg" xmlns:svg="http://www.w3.org/2000/svg" xmlns:xlink="http://www.w3.org/1999/xlink" id="svg2" width="633.805" height="331.09" version="1.1"><defs id="defs4"><marker id="TriangleInM" orient="auto" refX="0" refY="0" style="overflow:visible"><path id="path4180" d="M 5.77,0.0 L -2.88,5.0 L -2.88,-5.0 L 5.77,0.0 z" transform="scale(-0.4)" style="fill-rule:evenodd;stroke:#000;stroke-width:1pt"/></marker><marker id="TriangleOutM" orient="auto" refX="0" refY="0" style="overflow:visible"><path id="path4189" d="M 5.77,0.0 L -2.88,5.0 L -2.88,-5.0 L 5.77,0.0 z" transform="scale(0.4)" style="fill-rule:evenodd;stroke:#000;stroke-width:1pt"/></marker><marker style="overflow:visible" id="marker16175" orient="auto" refX="0" refY="0"><path style="fill-rule:evenodd;stroke-width:.625;stroke-linejoin:round;stroke:#000;stroke-opacity:1;fill:#000;fill-opacity:1" id="path16177" d="M 8.7185878,4.0337352 L -2.2072895,0.016013256 L 8.7185884,-4.0017078 C 6.9730900,-1.6296469 6.9831476,1.6157441 8.7185878,4.0337352 z" transform="scale(1.1) rotate(180) translate(1,0)"/></marker><marker id="Arrow1Lend" orient="auto" refX="0" refY="0" style="overflow:visible"><path id="path4343" d="M 0.0,0.0 L 5.0,-5.0 L -12.5,0.0 L 5.0,5.0 L 0.0,0.0 z" transform="scale(0.8) rotate(180) translate(12.5,0)" style="fill-rule:evenodd;stroke:#000;stroke-width:1pt;stroke-opacity:1;fill:#000;fill-opacity:1"/></marker><marker id="StopL" orient="auto" refX="0" refY="0" style="overflow:visible"><path id="path4011" d="M 0,5.65 0,-5.65" transform="scale(0.8,0.8)" style="fill:none;stroke:#000;stroke-width:1pt"/></marker><marker id="StopL-6" orient="auto" refX="0" refY="0" style="overflow:visible"><path id="path4011-3" d="M 0,5.65 0,-5.65" transform="scale(0.8,0.8)" style="fill:none;stroke:#000;stroke-width:1pt"/></marker><marker id="marker4590" orient="auto" refX="0" refY="0" style="overflow:visible"><path id="path4592" d="M 0,5.65 0,-5.65" transform="scale(0.8,0.8)" style="fill:none;stroke:#000;stroke-width:1pt"/></marker><marker id="StopL-0" orient="auto" refX="0" refY="0" style="overflow:visible"><path id="path4011-7" d="M 0,5.65 0,-5.65" transform="scale(0.8,0.8)" style="fill:none;stroke:#000;stroke-width:1pt"/></marker><marker id="marker4631" orient="auto" refX="0" refY="0" style="overflow:visible"><path id="path4633" d="M 0,5.65 0,-5.65" transform="scale(0.8,0.8)" style="fill:none;stroke:#000;stroke-width:1pt"/></marker><marker id="StopL-09" orient="auto" refX="0" refY="0" style="overflow:visible"><path id="path4011-0" d="M 0,5.65 0,-5.65" transform="scale(0.8,0.8)" style="fill:none;stroke:#000;stroke-width:1pt"/></marker><marker id="marker4672" orient="auto" refX="0" refY="0" style="overflow:visible"><path id="path4674" d="M 0,5.65 0,-5.65" transform="scale(0.8,0.8)" style="fill:none;stroke:#000;stroke-width:1pt"/></marker><marker id="StopL-5" orient="auto" refX="0" refY="0" style="overflow:visible"><path id="path4011-07" d="M 0,5.65 0,-5.65" transform="scale(0.8,0.8)" style="fill:none;stroke:#000;stroke-width:1pt"/></marker><marker id="marker4713" orient="auto" refX="0" refY="0" style="overflow:visible"><path id="path4715" d="M 0,5.65 0,-5.65" transform="scale(0.8,0.8)" style="fill:none;stroke:#000;stroke-width:1pt"/></marker><marker id="StopL-4" orient="auto" refX="0" refY="0" style="overflow:visible"><path id="path4011-8" d="M 0,5.65 0,-5.65" transform="scale(0.8,0.8)" style="fill:none;stroke:#000;stroke-width:1pt"/></marker><marker id="marker4783" orient="auto" refX="0" refY="0" style="overflow:visible"><path id="path4785" d="M 0,5.65 0,-5.65" transform="scale(0.8,0.8)" style="fill:none;stroke:#000;stroke-width:1pt"/></marker><marker id="StopL-7" orient="auto" refX="0" refY="0" style="overflow:visible"><path id="path4011-6" d="M 0,5.65 0,-5.65" transform="scale(0.8,0.8)" style="fill:none;stroke:#000;stroke-width:1pt"/></marker><marker id="marker4783-2" orient="auto" refX="0" refY="0" style="overflow:visible"><path id="path4785-7" d="M 0,5.65 0,-5.65" transform="scale(0.8,0.8)" style="fill:none;stroke:#000;stroke-width:1pt"/></marker><marker id="Arrow2Lend-6" orient="auto" refX="0" refY="0" style="overflow:visible"><path id="path4361-6" d="M 8.7185878,4.0337352 -2.2072895,0.01601326 8.7185884,-4.0017078 c -1.7454984,2.3720609 -1.7354408,5.6174519 -6e-7,8.035443 z" transform="matrix(-1.1,0,0,-1.1,-1.1,0)" style="fill:#000;fill-opacity:1;fill-rule:evenodd;stroke:#000;stroke-width:.625;stroke-linejoin:round;stroke-opacity:1"/></marker><marker id="Arrow2Lend-4" orient="auto" refX="0" refY="0" style="overflow:visible"><path id="path4361-1" d="M 8.7185878,4.0337352 -2.2072895,0.01601326 8.7185884,-4.0017078 c -1.7454984,2.3720609 -1.7354408,5.6174519 -6e-7,8.035443 z" transform="matrix(-1.1,0,0,-1.1,-1.1,0)" style="fill:#000;fill-opacity:1;fill-rule:evenodd;stroke:#000;stroke-width:.625;stroke-linejoin:round;stroke-opacity:1"/></marker><marker id="Arrow2Lend-7" orient="auto" refX="0" refY="0" style="overflow:visible"><path id="path4361-4" d="M 8.7185878,4.0337352 -2.2072895,0.01601326 8.7185884,-4.0017078 c -1.7454984,2.3720609 -1.7354408,5.6174519 -6e-7,8.035443 z" transform="matrix(-1.1,0,0,-1.1,-1.1,0)" style="fill:#000;fill-opacity:1;fill-rule:evenodd;stroke:#000;stroke-width:.625;stroke-linejoin:round;stroke-opacity:1"/></marker><marker id="Arrow2Lend-8" orient="auto" refX="0" refY="0" style="overflow:visible"><path id="path4361-40" d="M 8.7185878,4.0337352 -2.2072895,0.01601326 8.7185884,-4.0017078 c -1.7454984,2.3720609 -1.7354408,5.6174519 -6e-7,8.035443 z" transform="matrix(-1.1,0,0,-1.1,-1.1,0)" style="fill:#000;fill-opacity:1;fill-rule:evenodd;stroke:#000;stroke-width:.625;stroke-linejoin:round;stroke-opacity:1"/></marker><marker id="Arrow2Lend-5" orient="auto" refX="0" refY="0" style="overflow:visible"><path id="path4361-49" d="M 8.7185878,4.0337352 -2.2072895,0.01601326 8.7185884,-4.0017078 c -1.7454984,2.3720609 -1.7354408,5.6174519 -6e-7,8.035443 z" transform="matrix(-1.1,0,0,-1.1,-1.1,0)" style="fill:#000;fill-opacity:1;fill-rule:evenodd;stroke:#000;stroke-width:.625;stroke-linejoin:round;stroke-opacity:1"/></marker><marker id="Arrow2Lend-43" orient="auto" refX="0" refY="0" style="overflow:visible"><path id="path4361-5" d="M 8.7185878,4.0337352 -2.2072895,0.01601326 8.7185884,-4.0017078 c -1.7454984,2.3720609 -1.7354408,5.6174519 -6e-7,8.035443 z" transform="matrix(-1.1,0,0,-1.1,-1.1,0)" style="fill:#000;fill-opacity:1;fill-rule:evenodd;stroke:#000;stroke-width:.625;stroke-linejoin:round;stroke-opacity:1"/></marker><marker id="Arrow2Lend-65" orient="auto" refX="0" refY="0" style="overflow:visible"><path id="path4361-15" d="M 8.7185878,4.0337352 -2.2072895,0.01601326 8.7185884,-4.0017078 c -1.7454984,2.3720609 -1.7354408,5.6174519 -6e-7,8.035443 z" transform="matrix(-1.1,0,0,-1.1,-1.1,0)" style="fill:#000;fill-opacity:1;fill-rule:evenodd;stroke:#000;stroke-width:.625;stroke-linejoin:round;stroke-opacity:1"/></marker><marker id="Arrow2Lend-3" orient="auto" refX="0" refY="0" style="overflow:visible"><path id="path4361-9" d="M 8.7185878,4.0337352 -2.2072895,0.01601326 8.7185884,-4.0017078 c -1.7454984,2.3720609 -1.7354408,5.6174519 -6e-7,8.035443 z" transform="matrix(-1.1,0,0,-1.1,-1.1,0)" style="fill:#000;fill-opacity:1;fill-rule:evenodd;stroke:#000;stroke-width:.625;stroke-linejoin:round;stroke-opacity:1"/></marker><marker id="Arrow2Lend-8-1" orient="auto" refX="0" refY="0" style="overflow:visible"><path id="path4361-40-4" d="M 8.7185878,4.0337352 -2.2072895,0.01601326 8.7185884,-4.0017078 c -1.7454984,2.3720609 -1.7354408,5.6174519 -6e-7,8.035443 z" transform="matrix(-1.1,0,0,-1.1,-1.1,0)" style="fill:#000;fill-opacity:1;fill-rule:evenodd;stroke:#000;stroke-width:.625;stroke-linejoin:round;stroke-opacity:1"/></marker><marker id="Arrow2Lend-8-1-9" orient="auto" refX="0" refY="0" style="overflow:visible"><path id="path4361-40-4-3" d="M 8.7185878,4.0337352 -2.2072895,0.01601326 8.7185884,-4.0017078 c -1.7454984,2.3720609 -1.7354408,5.6174519 -6e-7,8.035443 z" transform="matrix(-1.1,0,0,-1.1,-1.1,0)" style="fill:#000;fill-opacity:1;fill-rule:evenodd;stroke:#000;stroke-width:.625;stroke-linejoin:round;stroke-opacity:1"/></marker><marker id="Arrow2Lend-8-1-1" orient="auto" refX="0" refY="0" style="overflow:visible"><path id="path4361-40-4-1" d="M 8.7185878,4.0337352 -2.2072895,0.01601326 8.7185884,-4.0017078 c -1.7454984,2.3720609 -1.7354408,5.6174519 -6e-7,8.035443 z" transform="matrix(-1.1,0,0,-1.1,-1.1,0)" style="fill:#000;fill-opacity:1;fill-rule:evenodd;stroke:#000;stroke-width:.625;stroke-linejoin:round;stroke-opacity:1"/></marker><marker id="Arrow2Lend-8-1-5" orient="auto" refX="0" refY="0" style="overflow:visible"><path id="path4361-40-4-2" d="M 8.7185878,4.0337352 -2.2072895,0.01601326 8.7185884,-4.0017078 c -1.7454984,2.3720609 -1.7354408,5.6174519 -6e-7,8.035443 z" transform="matrix(-1.1,0,0,-1.1,-1.1,0)" style="fill:#000;fill-opacity:1;fill-rule:evenodd;stroke:#000;stroke-width:.625;stroke-linejoin:round;stroke-opacity:1"/></marker><marker id="Arrow2Lend-8-1-1-0" orient="auto" refX="0" refY="0" style="overflow:visible"><path id="path4361-40-4-1-6" d="M 8.7185878,4.0337352 -2.2072895,0.01601326 8.7185884,-4.0017078 c -1.7454984,2.3720609 -1.7354408,5.6174519 -6e-7,8.035443 z" transform="matrix(-1.1,0,0,-1.1,-1.1,0)" style="fill:#000;fill-opacity:1;fill-rule:evenodd;stroke:#000;stroke-width:.625;stroke-linejoin:round;stroke-opacity:1"/></marker><marker id="Arrow2Lend-8-1-9-5" orient="auto" refX="0" refY="0" style="overflow:visible"><path id="path4361-40-4-3-9" d="M 8.7185878,4.0337352 -2.2072895,0.01601326 8.7185884,-4.0017078 c -1.7454984,2.3720609 -1.7354408,5.6174519 -6e-7,8.035443 z" transform="matrix(-1.1,0,0,-1.1,-1.1,0)" style="fill:#000;fill-opacity:1;fill-rule:evenodd;stroke:#000;stroke-width:.625;stroke-linejoin:round;stroke-opacity:1"/></marker><marker id="Arrow2Lend-8-1-0" orient="auto" refX="0" refY="0" style="overflow:visible"><path id="path4361-40-4-4" d="M 8.7185878,4.0337352 -2.2072895,0.01601326 8.7185884,-4.0017078 c -1.7454984,2.3720609 -1.7354408,5.6174519 -6e-7,8.035443 z" transform="matrix(-1.1,0,0,-1.1,-1.1,0)" style="fill:#000;fill-opacity:1;fill-rule:evenodd;stroke:#000;stroke-width:.625;stroke-linejoin:round;stroke-opacity:1"/></marker><marker id="TriangleOutM-9" orient="auto" refX="0" refY="0" style="overflow:visible"><path id="path4189-3" d="m 5.77,0 -8.65,5 0,-10 8.65,5 z" transform="scale(0.4,0.4)" style="fill-rule:evenodd;stroke:#000;stroke-width:1pt"/></marker><marker id="TriangleOutM-8" orient="auto" refX="0" refY="0" style="overflow:visible"><path id="path4189-9" d="m 5.77,0 -8.65,5 0,-10 8.65,5 z" transform="scale(0.4,0.4)" style="fill-rule:evenodd;stroke:#000;stroke-width:1pt"/></marker><marker id="TriangleOutM-5" orient="auto" refX="0" refY="0" style="overflow:visible"><path id="path4189-1" d="m 5.77,0 -8.65,5 0,-10 8.65,5 z" transform="scale(0.4,0.4)" style="fill-rule:evenodd;stroke:#000;stroke-width:1pt"/></marker><marker id="TriangleOutM-2" orient="auto" refX="0" refY="0" style="overflow:visible"><path id="path4189-0" d="m 5.77,0 -8.65,5 0,-10 8.65,5 z" transform="scale(0.4,0.4)" style="fill-rule:evenodd;stroke:#000;stroke-width:1pt"/></marker><marker id="TriangleOutM-6" orient="auto" refX="0" refY="0" style="overflow:visible"><path id="path4189-8" d="m 5.77,0 -8.65,5 0,-10 8.65,5 z" transform="scale(0.4,0.4)" style="fill-rule:evenodd;stroke:#000;stroke-width:1pt"/></marker><marker id="marker4783-2-6" orient="auto" refX="0" refY="0" style="overflow:visible"><path id="path4785-7-2" d="M 0,5.65 0,-5.65" transform="scale(0.8,0.8)" style="fill:none;stroke:#000;stroke-width:1pt"/></marker><marker id="marker6674" orient="auto" refX="0" refY="0" style="overflow:visible"><path id="path6676" d="M 0,5.65 0,-5.65" transform="scale(0.8,0.8)" style="fill:none;stroke:#000;stroke-width:1pt"/></marker><marker id="marker4783-2-2" orient="auto" refX="0" refY="0" style="overflow:visible"><path id="path4785-7-3" d="M 0,5.65 0,-5.65" transform="scale(0.8,0.8)" style="fill:none;stroke:#000;stroke-width:1pt"/></marker><marker id="marker6706" orient="auto" refX="0" refY="0" style="overflow:visible"><path id="path6708" d="M 0,5.65 0,-5.65" transform="scale(0.8,0.8)" style="fill:none;stroke:#000;stroke-width:1pt"/></marker><marker id="TriangleOutM-88" orient="auto" refX="0" refY="0" style="overflow:visible"><path id="path4189-82" d="m 5.77,0 -8.65,5 0,-10 8.65,5 z" transform="scale(0.4,0.4)" style="fill-rule:evenodd;stroke:#000;stroke-width:1pt"/></marker></defs><metadata id="metadata7"/><g id="layer1"><image id="image3448" width="1500" height="645" x="-267.172" y="-109.501" preserveAspectRatio="none" xlink:href="rofi.png"/></g><g id="layer2"><text style="font-style:normal;font-weight:400;font-size:40px;line-height:125%;font-family:sans-serif;letter-spacing:0;word-spacing:0;fill:#000;fill-opacity:1;stroke:none;stroke-width:1px;stroke-linecap:butt;stroke-linejoin:miter;stroke-opacity:1" id="text3452" x="447.111" y="-343.276" xml:space="preserve"><tspan id="tspan3454" x="447.111" y="-343.276">rofi.color-window: bg,border,seperator</tspan></text><path style="fill:none;fill-rule:evenodd;stroke:#000;stroke-width:4;stroke-linecap:butt;stroke-linejoin:miter;stroke-opacity:1;stroke-miterlimit:4;stroke-dasharray:none;marker-end:url(#TriangleOutM)" id="path3456" d="M 799.09166,-88.538885 C 833.97264,-314.73679 833.97264,-314.73679 833.97264,-314.73679"/><path style="fill:none;fill-rule:evenodd;stroke:#000;stroke-width:4;stroke-linecap:butt;stroke-linejoin:miter;stroke-miterlimit:4;stroke-dasharray:none;stroke-opacity:1;marker-end:url(#TriangleOutM)" id="path3456-9" d="m 883.26661,-102.28553 c 34.88098,-226.19791 34.88098,-226.19791 34.88098,-226.19791"/><path style="fill:none;fill-rule:evenodd;stroke:#000;stroke-width:4;stroke-linecap:butt;stroke-linejoin:miter;stroke-miterlimit:4;stroke-dasharray:none;stroke-opacity:1;marker-end:url(#TriangleOutM)" id="path3456-7" d="m 1040.7595,-24.067565 66.591,-290.674875"/><path style="fill:none;fill-rule:evenodd;stroke:#000;stroke-width:4;stroke-linecap:butt;stroke-linejoin:miter;stroke-miterlimit:4;stroke-dasharray:none;stroke-opacity:1;marker-end:url(#TriangleOutM)" id="path3456-6" d="M 1190.8535,6.5854246 1112.6355,-316.85644"/><text style="font-style:normal;font-weight:400;font-size:40px;line-height:125%;font-family:sans-serif;letter-spacing:0;word-spacing:0;fill:#000;fill-opacity:1;stroke:none;stroke-width:1px;stroke-linecap:butt;stroke-linejoin:miter;stroke-opacity:1" id="text6501" x="-626.438" y="604.853" xml:space="preserve"><tspan id="tspan6503" x="-626.438" y="604.853">rofi.color-normal: bg,fg,bgalt,bghl,fghl</tspan></text><path style="fill:none;stroke:#000;stroke-width:4;stroke-linecap:butt;stroke-linejoin:miter;stroke-miterlimit:4;stroke-opacity:1;stroke-dasharray:none;marker-start:none;marker-end:url(#TriangleOutM-88)" id="path3456-8" d="m -199.25116,438.09771 -24.16076,138.21046"/><path style="fill:none;stroke:#000;stroke-width:4;stroke-linecap:butt;stroke-linejoin:miter;stroke-miterlimit:4;stroke-opacity:1;stroke-dasharray:none;marker-start:none;marker-end:url(#TriangleOutM-88)" id="path3456-4" d="m -214.62983,377.78461 c 53.90698,39.10899 57.80888,80.13962 57.80888,190.06757"/><path style="fill:none;fill-rule:evenodd;stroke:#000;stroke-width:4;stroke-linecap:butt;stroke-linejoin:miter;stroke-miterlimit:4;stroke-dasharray:none;stroke-opacity:1;marker-end:url(#TriangleOutM-88);marker-start:none" id="path3456-92" d="m -126.16796,380.76327 26.424985,191.31691"/><path style="fill:none;fill-rule:evenodd;stroke:#000;stroke-width:4;stroke-linecap:butt;stroke-linejoin:miter;stroke-miterlimit:4;stroke-dasharray:none;stroke-opacity:1;marker-end:url(#TriangleOutM-88);marker-start:none" id="path3456-83" d="M -73.317986,332.14128 23.925963,565.73817"/><path style="fill:none;stroke:#000;stroke-width:4;stroke-linecap:butt;stroke-linejoin:miter;stroke-miterlimit:4;stroke-opacity:1;stroke-dasharray:none;marker-start:none;marker-end:url(#TriangleOutM-88)" id="path3456-41" d="M -6.7581264,342.86152 107.42894,569.96619"/><text style="font-style:normal;font-weight:400;font-size:40px;line-height:125%;font-family:sans-serif;letter-spacing:0;word-spacing:0;fill:#000;fill-opacity:1;stroke:none;stroke-width:1px;stroke-linecap:butt;stroke-linejoin:miter;stroke-opacity:1" id="text6501-6" x="-1159.713" y="142.352" xml:space="preserve"><tspan id="tspan6503-3" x="-1159.713" y="142.352">rofi.color-urgent: bg,fg,bgalt,bghl,fghl</tspan></text><path style="fill:none;stroke:#000;stroke-width:4;stroke-linecap:butt;stroke-linejoin:miter;stroke-miterlimit:4;stroke-opacity:1;stroke-dasharray:none;marker-start:url(#TriangleInM);marker-end:none" id="path3456-8-3" d="m -760.72094,106.22638 c 64.8293,-94.425292 385.98099,-55.668647 549.11125,-5.28501"/><path style="fill:none;stroke:#000;stroke-width:4;stroke-linecap:butt;stroke-linejoin:miter;stroke-miterlimit:4;stroke-opacity:1;stroke-dasharray:none;marker-start:url(#TriangleInM);marker-end:none" id="path3456-8-3-7" d="m -685.76133,157.39231 c 172.11476,56.19714 182.43346,46.86031 482.97366,-34.3525"/><path style="fill:none;stroke:#000;stroke-width:4;stroke-linecap:butt;stroke-linejoin:miter;stroke-miterlimit:4;stroke-opacity:1;stroke-dasharray:none;marker-start:url(#TriangleInM);marker-end:none" id="path3456-8-3-4" d="m -612.82837,158.97781 c 56.37331,87.90713 131.37879,66.9433 402.323,2.11398"/><text style="font-style:normal;font-weight:400;font-size:40px;line-height:125%;font-family:sans-serif;letter-spacing:0;word-spacing:0;fill:#000;fill-opacity:1;stroke:none;stroke-width:1px;stroke-linecap:butt;stroke-linejoin:miter;stroke-opacity:1" id="text6501-6-7" x="-1185.163" y="285.796" xml:space="preserve"><tspan id="tspan6503-3-3" x="-1185.163" y="285.796">rofi.color-active: bg,fg,bgalt,bghl,fghl</tspan></text><path style="fill:none;stroke:#000;stroke-width:4;stroke-linecap:butt;stroke-linejoin:miter;stroke-miterlimit:4;stroke-opacity:1;stroke-dasharray:none;marker-start:url(#TriangleInM);marker-end:none" id="path3456-8-3-9" d="m -793.04083,255.48332 c 69.05729,-35.23332 373.82549,-9.68917 582.40673,-50.20749"/><path style="fill:none;stroke:#000;stroke-width:4;stroke-linecap:butt;stroke-linejoin:miter;stroke-miterlimit:4;stroke-opacity:1;stroke-dasharray:none;marker-start:url(#TriangleInM);marker-end:none" id="path3456-8-3-7-5" d="M -726.00872,304.00675 C -563.60185,419.98052 -511.9312,317.04032 -212.448,264.895"/><path style="fill:none;stroke:#000;stroke-width:4;stroke-linecap:butt;stroke-linejoin:miter;stroke-miterlimit:4;stroke-opacity:1;stroke-dasharray:none;marker-end:none;marker-start:url(#TriangleInM)" id="path3456-8-3-4-7" d="m -630.87877,295.02225 c 10.92233,136.00061 131.24411,63.2438 402.18832,-1.58552"/></g><g id="layer3"><path style="fill:navy;stroke:navy;stroke-width:4;stroke-linecap:butt;stroke-linejoin:miter;stroke-miterlimit:4;stroke-opacity:1;stroke-dasharray:none;marker-end:url(#TriangleOutM)" id="path3456-5" d="M 1423.3187,99.441129 1204.5197,82.529124"/><text style="font-size:40px;font-style:normal;font-weight:400;line-height:125%;letter-spacing:0;word-spacing:0;fill:navy;fill-opacity:1;stroke:none;font-family:Arial;-inkscape-font-specification:Arial" id="text6081" x="1426.949" y="115.462" xml:space="preserve"><tspan id="tspan6083" x="1426.949" y="115.462">hide-scrollbar</tspan></text><path style="fill:navy;stroke:navy;stroke-width:4;stroke-linecap:butt;stroke-linejoin:miter;stroke-miterlimit:4;stroke-opacity:1;stroke-dasharray:none;marker-end:url(#TriangleOutM)" id="path3456-5-6" d="m 1338.8547,475.13559 -218.799,-16.91201"/><text style="font-size:40px;font-style:normal;font-weight:400;line-height:125%;letter-spacing:0;word-spacing:0;fill:navy;fill-opacity:1;stroke:none;font-family:Arial;-inkscape-font-specification:Arial" id="text6081-4" x="1342.485" y="491.156" xml:space="preserve"><tspan id="tspan6083-6" x="1342.485" y="491.156">line-margin</tspan></text><path style="fill:navy;stroke:navy;stroke-width:4;stroke-linecap:butt;stroke-linejoin:miter;stroke-miterlimit:4;stroke-opacity:1;stroke-dasharray:none;marker-end:url(#TriangleOutM)" id="path3456-5-3" d="m 1294.4607,536.44156 -218.799,-16.91201"/><text style="font-size:40px;font-style:normal;font-weight:400;line-height:125%;letter-spacing:0;word-spacing:0;fill:navy;fill-opacity:1;stroke:none;font-family:Arial;-inkscape-font-specification:Arial" id="text6081-40" x="1295.977" y="552.462" xml:space="preserve"><tspan id="tspan6083-5" x="1295.977" y="552.462">padding</tspan></text><path style="fill:navy;stroke:navy;stroke-width:4;stroke-linecap:butt;stroke-linejoin:miter;stroke-miterlimit:4;stroke-opacity:1;stroke-dasharray:none;marker-start:url(#marker4783-2);marker-end:url(#marker4783-2)" id="path3456-5-3-1" d="m 1073.2574,452.78443 -10e-5,8.45598"/><path style="fill:navy;stroke:navy;stroke-width:4;stroke-linecap:butt;stroke-linejoin:miter;stroke-miterlimit:4;stroke-opacity:1;stroke-dasharray:none;marker-start:url(#marker4783-2);marker-end:url(#marker4783-2)" id="path3456-5-3-1-1" d="m 1039.0306,506.55186 -10e-5,20.08297"/><path style="fill:navy;stroke:navy;stroke-width:4;stroke-linecap:butt;stroke-linejoin:miter;stroke-miterlimit:4;stroke-opacity:1;stroke-dasharray:none;marker-end:url(#TriangleOutM)" id="path3456-5-3-2" d="M 664.3534,611.33462 473.95604,543.59863"/><text style="font-size:40px;font-style:normal;font-weight:400;line-height:125%;letter-spacing:0;word-spacing:0;fill:navy;fill-opacity:1;stroke:none;font-family:Arial;-inkscape-font-specification:Arial" id="text6081-40-0" x="665.87" y="627.356" xml:space="preserve"><tspan id="tspan6083-5-6" x="665.87" y="627.356">bw</tspan></text><path style="fill:navy;stroke:navy;stroke-width:4;stroke-linecap:butt;stroke-linejoin:miter;stroke-miterlimit:4;stroke-opacity:1;stroke-dasharray:none;marker-start:url(#marker4783-2);marker-end:url(#marker4783-2)" id="path3456-5-3-1-3" d="m 443.1501,527.67749 -1e-4,8.45598"/></g></svg>